# Blender 4.0.1
# www.blender.org
mtllib arrow.mtl
o Plane
v -0.760000 0.000000 -2.795126
v 0.760000 0.000000 -2.795126
v 0.000019 0.000000 -3.889433
v -0.396267 0.000000 -2.798291
v 0.395302 0.000000 -2.798291
v -0.396267 0.000000 0.007956
v 0.395302 0.000000 0.007956
v -0.760000 0.490997 -2.795126
v 0.760000 0.490997 -2.795126
v 0.000019 0.490997 -3.889433
v -0.396267 0.490997 -2.798291
v 0.395302 0.490997 -2.798291
v -0.396267 0.490997 0.007956
v 0.395302 0.490997 0.007956
vn -0.0000 -1.0000 -0.0000
vn -0.0000 1.0000 -0.0000
vn -0.8213 -0.0000 -0.5704
vn -1.0000 -0.0000 -0.0000
vn -0.0087 -0.0000 1.0000
vn 1.0000 -0.0000 -0.0000
vn -0.0000 -0.0000 1.0000
vn 0.0087 -0.0000 1.0000
vn 0.8214 -0.0000 -0.5704
vt 0.000000 0.000000
vt 0.000000 1.000000
vt 1.000000 0.000000
s 1
f 1/1/1 3/2/1 2/3/1
f 2/3/2 5/3/2 1/1/2
f 5/3/1 7/3/1 6/1/1 4/1/1
f 1/1/2 5/3/2 4/1/2
f 8/1/2 9/3/2 10/2/2
f 9/3/1 8/1/1 12/3/1
f 12/3/2 11/1/2 13/1/2 14/3/2
f 8/1/1 11/1/1 12/3/1
f 3/2/3 1/1/3 8/1/3 10/2/3
f 4/1/4 6/1/4 13/1/4 11/1/4
f 5/3/5 2/3/5 9/3/5 12/3/5
f 7/3/6 5/3/6 12/3/6 14/3/6
f 6/1/7 7/3/7 14/3/7 13/1/7
f 1/1/8 4/1/8 11/1/8 8/1/8
f 2/3/9 3/2/9 10/2/9 9/3/9
