# Blender 4.0.1
# www.blender.org
mtllib parabola.mtl
o BezierCurve
v -1.000000 0.000000 0.000000
v -0.890063 0.000000 -0.184332
v -0.750719 0.000000 -0.339227
v -0.587695 0.000000 -0.463461
v -0.406720 0.000000 -0.555811
v -0.213521 0.000000 -0.615055
v -0.013827 0.000000 -0.639968
v 0.186636 0.000000 -0.629327
v 0.382139 0.000000 -0.581909
v 0.566955 0.000000 -0.496491
v 0.735355 0.000000 -0.371849
v 0.881613 0.000000 -0.206760
v 1.000000 0.000000 0.000000
v -1.000000 0.023701 0.000000
v -0.890063 0.023701 -0.184332
v -0.750719 0.023701 -0.339227
v -0.587695 0.023701 -0.463461
v -0.406720 0.023701 -0.555811
v -0.213521 0.023701 -0.615055
v -0.013827 0.023701 -0.639968
v 0.186636 0.023701 -0.629327
v 0.382139 0.023701 -0.581909
v 0.566955 0.023701 -0.496491
v 0.735355 0.023701 -0.371849
v 0.881613 0.023701 -0.206760
v 1.000000 0.023701 0.000000
v -1.025766 0.000000 -0.015367
v -0.914212 0.000000 -0.202132
v -0.771051 0.000000 -0.361286
v -0.603669 0.000000 -0.488854
v -0.417978 0.000000 -0.583619
v -0.219800 0.000000 -0.644390
v -0.014893 0.000000 -0.669949
v 0.190985 0.000000 -0.659010
v 0.392015 0.000000 -0.610237
v 0.582251 0.000000 -0.522298
v 0.755617 0.000000 -0.393973
v 0.905986 0.000000 -0.224252
v 1.026034 0.000000 -0.014907
v -1.025766 0.023701 -0.015367
v -0.914212 0.023701 -0.202132
v -0.771051 0.023701 -0.361286
v -0.603669 0.023701 -0.488854
v -0.417978 0.023701 -0.583619
v -0.219800 0.023701 -0.644390
v -0.014893 0.023701 -0.669949
v 0.190985 0.023701 -0.659010
v 0.392015 0.023701 -0.610237
v 0.582251 0.023701 -0.522298
v 0.755617 0.023701 -0.393973
v 0.905986 0.023701 -0.224252
v 1.026034 0.023701 -0.014907
vn 0.1437 -0.7271 0.6713
vn 0.0244 -0.7276 0.6856
vn 0.0244 0.7276 0.6856
vn 0.1437 0.7271 0.6713
vn 0.4641 -0.7287 0.5035
vn 0.3651 -0.7278 0.5805
vn 0.3651 0.7278 0.5805
vn 0.4641 0.7287 0.5035
vn -0.3481 -0.7308 0.5872
vn -0.4606 -0.7313 0.5030
vn -0.4606 0.7313 0.5030
vn -0.3481 0.7308 0.5872
vn -0.0993 -0.7285 0.6778
vn -0.0993 0.7285 0.6778
vn 0.2576 -0.7272 0.6362
vn 0.2576 0.7272 0.6362
vn -0.5545 -0.7309 0.3980
vn -0.5545 0.7309 0.3980
vn 0.2001 -0.5774 0.7916
vn 0.5504 -0.7297 0.4057
vn 0.5504 0.7297 0.4057
vn 0.2001 0.5774 0.7916
vn -0.2251 -0.7297 0.6457
vn -0.2251 0.7297 0.6457
vn -0.2141 -0.5774 0.7879
vn -0.2141 0.5774 0.7879
vn -0.1518 -0.6881 -0.7095
vn -0.1518 0.6881 -0.7095
vn -0.0258 0.6877 -0.7255
vn -0.0258 -0.6877 -0.7255
vn -0.4927 -0.6867 -0.5345
vn -0.4927 0.6867 -0.5345
vn -0.3867 0.6875 -0.6147
vn -0.3867 -0.6875 -0.6147
vn 0.3716 -0.6849 -0.6268
vn 0.3716 0.6849 -0.6268
vn 0.4924 0.6844 -0.5377
vn 0.4924 -0.6844 -0.5377
vn 0.1054 0.6869 -0.7191
vn 0.1054 -0.6869 -0.7191
vn -0.2723 0.6880 -0.6726
vn -0.2723 -0.6880 -0.6726
vn 0.5919 0.6849 -0.4251
vn 0.5919 -0.6849 -0.4251
vn -0.7917 -0.5773 0.1999
vn -0.7917 0.5773 0.1999
vn -0.5856 0.6859 -0.4319
vn -0.5856 -0.6859 -0.4319
vn 0.2396 0.6858 -0.6872
vn 0.2396 -0.6858 -0.6872
vn 0.7880 0.5773 0.2139
vn 0.7880 -0.5773 0.2139
s 1
f 6//1 7//2 20//3 19//4
f 3//5 4//6 17//7 16//8
f 10//9 11//10 24//11 23//12
f 7//2 8//13 21//14 20//3
f 4//6 5//15 18//16 17//7
f 11//10 12//17 25//18 24//11
f 1//19 2//20 15//21 14//22
f 8//13 9//23 22//24 21//14
f 5//15 6//1 19//4 18//16
f 12//17 13//25 26//26 25//18
f 2//20 3//5 16//8 15//21
f 9//23 10//9 23//12 22//24
f 32//27 45//28 46//29 33//30
f 29//31 42//32 43//33 30//34
f 36//35 49//36 50//37 37//38
f 33//30 46//29 47//39 34//40
f 30//34 43//33 44//41 31//42
f 37//38 50//37 51//43 38//44
f 27//45 40//46 41//47 28//48
f 34//40 47//39 48//49 35//50
f 31//42 44//41 45//28 32//27
f 38//44 51//43 52//51 39//52
f 28//48 41//47 42//32 29//31
f 35//50 48//49 49//36 36//35
f 2//20 1//19 27//45 28//48
f 3//5 2//20 28//48 29//31
f 4//6 3//5 29//31 30//34
f 5//15 4//6 30//34 31//42
f 6//1 5//15 31//42 32//27
f 7//2 6//1 32//27 33//30
f 8//13 7//2 33//30 34//40
f 9//23 8//13 34//40 35//50
f 10//9 9//23 35//50 36//35
f 11//10 10//9 36//35 37//38
f 12//17 11//10 37//38 38//44
f 13//25 12//17 38//44 39//52
f 14//22 15//21 41//47 40//46
f 15//21 16//8 42//32 41//47
f 16//8 17//7 43//33 42//32
f 17//7 18//16 44//41 43//33
f 18//16 19//4 45//28 44//41
f 19//4 20//3 46//29 45//28
f 20//3 21//14 47//39 46//29
f 21//14 22//24 48//49 47//39
f 22//24 23//12 49//36 48//49
f 23//12 24//11 50//37 49//36
f 24//11 25//18 51//43 50//37
f 25//18 26//26 52//51 51//43
f 1//19 14//22 40//46 27//45
f 26//26 13//25 39//52 52//51
