# Blender 4.0.1
# www.blender.org
mtllib Audience.mtl
o Audience
v 46.090672 3.580490 11.810783
v 44.915516 3.580490 20.745033
v 42.309490 3.580490 29.335947
v 38.077534 3.580490 37.253380
v 32.382282 3.580490 44.193066
v 25.442596 3.580490 49.888317
v 17.525166 3.580490 54.120274
v 8.934252 3.580490 56.726299
v 0.000000 3.580490 57.901455
v -8.934252 3.580490 56.726299
v -17.525166 3.580490 54.120274
v -25.442596 3.580490 49.888317
v -32.382282 3.580490 44.193066
v -38.077534 3.580490 37.253380
v -42.309490 3.580490 29.335947
v -44.915516 3.580490 20.745033
v -46.090672 3.580490 11.810783
v -42.309490 1.762641 29.335947
v -38.077534 1.762641 37.253380
v -32.382282 1.762641 44.193066
v -25.442596 1.762641 49.888317
v -17.525166 1.762641 54.120274
v -8.934252 1.762641 56.726299
v 0.000000 1.762641 57.901455
v 56.246933 1.653676 11.810783
v 54.812828 1.653676 22.713734
v 51.632557 1.653676 33.197685
v 46.468075 1.653676 42.859756
v 39.517849 1.653676 51.328632
v 31.048975 1.653676 58.278858
v 21.386906 1.653676 63.443340
v 10.902950 1.653676 66.623611
v 0.000001 1.653676 67.697464
v -10.902950 1.653676 66.623611
v -21.386906 1.653676 63.443340
v -31.048975 1.653676 58.278858
v -39.517849 1.653676 51.328632
v -46.468075 1.653676 42.859756
v -51.632557 1.653676 33.197685
v -54.812828 1.653676 22.713734
v -56.246933 1.653676 11.810783
v 8.934252 1.762641 56.726299
v 17.525166 1.762641 54.120274
v 25.442596 1.762641 49.888317
v 32.382282 1.762641 44.193066
v 38.077534 1.762641 37.253380
v 42.309490 1.762641 29.335947
v 44.915516 1.762641 20.745033
v 46.090672 1.762641 11.810783
v 56.246933 3.580490 11.810783
v 54.812828 3.580490 22.713734
v 51.632557 3.580490 33.197685
v 46.468075 3.580490 42.859756
v 39.517849 3.580490 51.328632
v 31.048975 3.580490 58.278858
v 21.386906 3.580490 63.443340
v 10.902950 3.580490 66.623611
v 0.000001 3.580490 67.697464
v -10.902950 3.580490 66.623611
v -21.386906 3.580490 63.443340
v -31.048975 3.580490 58.278858
v -39.517849 3.580490 51.328632
v -46.468075 3.580490 42.859756
v -51.632557 3.580490 33.197685
v -54.812828 3.580490 22.713734
v -56.246933 3.580490 11.810783
v -46.090672 1.762641 11.810783
v -44.915516 1.762641 20.745033
v 45.611668 3.580490 16.299505
v 43.823353 3.580490 25.104452
v 40.387836 3.580490 33.398529
v 35.400230 3.580490 40.862999
v 29.052217 3.580490 47.211014
v 21.587748 3.580490 52.198620
v 13.293670 3.580490 55.634136
v 4.488723 3.580490 57.422451
v -4.488723 3.580490 57.422451
v -13.293670 3.580490 55.634136
v -21.587748 3.580490 52.198620
v -29.052217 3.580490 47.211014
v -35.400230 3.580490 40.862999
v -40.387836 3.580490 33.398529
v -43.823353 3.580490 25.104452
v -45.611668 3.580490 16.299505
v 51.168804 1.708158 11.810783
v -32.382282 2.671566 44.193066
v 32.382282 2.671566 44.193066
v -25.442595 2.671566 49.888321
v -31.048975 2.617083 58.278858
v -42.309490 2.671566 29.335947
v -39.517849 2.617083 51.328632
v 17.525166 2.671566 54.120274
v -46.468075 2.617083 42.859756
v 56.246933 2.617083 11.810783
v -51.632557 2.617083 33.197685
v 54.812828 2.617083 22.713732
v -54.812828 2.617083 22.713734
v 51.632557 2.617083 33.197685
v -56.246933 2.617083 11.810783
v 46.468075 2.617083 42.859756
v -43.823353 1.762641 25.104452
v 39.517849 2.617083 51.328632
v -29.052217 1.762641 47.211014
v 31.048975 2.617083 58.278858
v -13.293670 1.762641 55.634136
v 21.386904 2.617083 63.443340
v 38.077538 2.671566 37.253380
v 4.488723 1.762641 57.422451
v 10.902950 2.617083 66.623611
v -8.934251 2.671566 56.726295
v 21.587748 1.762641 52.198620
v 0.000001 2.617083 67.697464
v 46.090672 2.671566 11.810783
v 35.400230 1.762641 40.862999
v -21.386906 2.617083 63.443340
v -10.902950 2.617083 66.623611
v 8.934252 2.671566 56.726295
v 0.000000 2.671566 57.901455
v -51.168804 3.580490 11.810783
v 43.823353 1.762641 25.104452
v 55.662384 1.653676 17.288614
v 53.480011 1.653676 28.033764
v 49.287457 1.653676 38.155476
v 43.200817 1.653676 47.264782
v 35.453995 1.653676 55.011600
v 26.344696 1.653676 61.098244
v 16.222982 1.653676 65.290787
v 5.477831 1.653676 67.428131
v -5.477830 1.653676 67.428131
v -16.222982 1.653676 65.290794
v -26.344696 1.653676 61.098240
v -35.453999 1.653676 55.011600
v -43.200817 1.653676 47.264778
v -49.287460 1.653676 38.155476
v -53.480007 1.653676 28.033764
v -55.662384 1.653676 17.288614
v 51.168804 3.580490 11.810783
v -17.525166 2.671566 54.120274
v 42.309490 2.671566 29.335947
v -46.090672 2.671566 11.810783
v 44.915516 2.671566 20.745033
v -44.915512 2.671566 20.745033
v -38.077534 2.671566 37.253380
v 25.442595 2.671566 49.888317
v -45.611668 1.762641 16.299505
v 55.662384 3.580490 17.288614
v 53.480011 3.580490 28.033764
v 49.287457 3.580490 38.155476
v 43.200817 3.580490 47.264782
v 35.453995 3.580490 55.011600
v 26.344696 3.580490 61.098244
v 16.222982 3.580490 65.290787
v 5.477831 3.580490 67.428131
v -5.477830 3.580490 67.428131
v -16.222982 3.580490 65.290794
v -26.344696 3.580490 61.098240
v -35.453999 3.580490 55.011600
v -43.200817 3.580490 47.264778
v -49.287460 3.580490 38.155476
v -53.480007 3.580490 28.033764
v -55.662384 3.580490 17.288614
v -40.387836 1.762641 33.398529
v -35.400230 1.762641 40.862999
v -21.587748 1.762641 52.198620
v -4.488723 1.762641 57.422451
v 13.293670 1.762641 55.634136
v 29.052217 1.762641 47.211014
v 40.387836 1.762641 33.398529
v 45.611668 1.762641 16.299505
v -51.168804 1.708158 11.810783
v -49.864170 3.580490 21.729383
v -46.971024 3.580490 31.266817
v -42.272804 3.580490 40.056568
v -35.950069 3.580490 47.760849
v -28.245787 3.580490 54.083591
v -19.456036 3.580490 58.781807
v -9.918600 3.580490 61.674957
v 0.000000 3.580490 62.676449
v 9.918600 3.580490 61.674953
v 19.456036 3.580490 58.781807
v 28.245785 3.580490 54.083588
v 35.950066 3.580490 47.760853
v 42.272808 3.580490 40.056572
v 46.971024 3.580490 31.266817
v 49.864174 3.580490 21.729383
v -49.864166 1.708158 21.729383
v -46.971027 1.708158 31.266817
v -42.272808 1.708158 40.056572
v -35.950066 1.708158 47.760849
v -28.245787 1.708158 54.083588
v -19.456036 1.708158 58.781807
v -9.918600 1.708158 61.674950
v 0.000000 1.708158 62.676453
v 9.918601 1.708158 61.674953
v 19.456036 1.708158 58.781811
v 28.245785 1.708158 54.083591
v 35.950066 1.708158 47.760849
v 42.272804 1.708158 40.056568
v 46.971024 1.708158 31.266817
v 49.864166 1.708158 21.729383
v -26.344696 2.617083 61.098236
v -35.453991 2.617083 55.011597
v -43.200813 2.617083 47.264774
v -49.287453 2.617083 38.155476
v 55.662384 2.617083 17.288614
v -53.480007 2.617083 28.033764
v 53.480000 2.617083 28.033764
v -55.662376 2.617083 17.288614
v 49.287453 2.617083 38.155476
v 43.200813 2.617083 47.264774
v 35.453991 2.617083 55.011597
v 26.344692 2.617083 61.098236
v 16.222982 2.617083 65.290787
v 21.587746 2.671566 52.198616
v 5.477831 2.617083 67.428131
v -5.477830 2.617083 67.428123
v -16.222980 2.617083 65.290787
v -40.387833 2.671566 33.398529
v 13.293669 2.671566 55.634132
v -43.823349 2.671566 25.104450
v 4.488723 2.671566 57.422451
v 45.611664 2.671566 16.299505
v -45.611668 2.671566 16.299505
v -4.488723 2.671566 57.422447
v 43.823349 2.671566 25.104450
v -13.293669 2.671566 55.634132
v 40.387833 2.671566 33.398529
v -21.587746 2.671566 52.198616
v 35.400230 2.671566 40.862999
v -29.052217 2.671566 47.211014
v 29.052217 2.671566 47.211010
v -35.400227 2.671566 40.862999
v 51.168800 2.644325 11.810783
v -51.168804 2.644325 11.810783
v -50.637020 3.580490 16.794060
v -50.637020 1.708158 16.794060
v -48.651676 3.580490 26.569107
v -44.837643 3.580490 35.777000
v -39.300526 3.580490 44.063889
v -32.253105 3.580490 51.111305
v -23.966219 3.580490 56.648426
v -14.758325 3.580490 60.462460
v -4.983277 3.580490 62.412991
v 4.983277 3.580490 62.412991
v 14.758327 3.580490 60.462460
v 23.966219 3.580490 56.648426
v 32.253105 3.580490 51.111309
v 39.300522 3.580490 44.063889
v 44.837643 3.580490 35.777000
v 48.651676 3.580490 26.569107
v 50.637024 3.580490 16.794060
v -48.651676 1.708158 26.569107
v -44.837643 1.708158 35.777000
v -39.300522 1.708158 44.063885
v -32.253109 1.708158 51.111301
v -23.966219 1.708158 56.648422
v -14.758325 1.708158 60.462460
v -4.983276 1.708158 62.412994
v 4.983277 1.708158 62.412987
v 14.758325 1.708158 60.462460
v 23.966219 1.708158 56.648426
v 32.253101 1.708158 51.111305
v 39.300518 1.708158 44.063892
v 44.837639 1.708158 35.777000
v 48.651676 1.708158 26.569107
v 50.637020 1.708158 16.794060
vn -0.5556 -0.0000 0.8315
vn -0.4714 -0.0000 0.8819
vn -0.3827 -0.0000 0.9239
vn -0.7071 -0.0000 0.7071
vn -0.6344 -0.0000 0.7730
vn -0.8315 -0.0000 0.5556
vn -0.7730 -0.0000 0.6344
vn -0.9239 -0.0000 0.3827
vn -0.8819 -0.0000 0.4714
vn 0.9800 -0.0000 0.1991
vn 0.9915 -0.0000 0.1304
vn 0.9944 -0.0000 0.1061
vn -0.9800 -0.0000 0.1991
vn -0.9569 -0.0000 0.2903
vn 0.9239 -0.0000 0.3827
vn 0.9569 -0.0000 0.2903
vn -0.9944 -0.0000 0.1061
vn -0.9915 -0.0000 0.1304
vn 0.8315 -0.0000 0.5556
vn 0.8819 -0.0000 0.4714
vn 0.7071 -0.0000 0.7071
vn 0.7730 -0.0000 0.6344
vn 0.5556 -0.0000 0.8315
vn 0.6344 -0.0000 0.7730
vn 0.3827 -0.0000 0.9239
vn 0.4714 -0.0000 0.8819
vn 0.1951 -0.0000 0.9808
vn 0.2903 -0.0000 0.9569
vn -0.5556 -0.0000 -0.8315
vn -0.4714 -0.0000 -0.8819
vn -0.3827 -0.0000 -0.9239
vn -0.0000 -0.0000 1.0000
vn 0.0980 -0.0000 0.9952
vn -0.1951 -0.0000 0.9808
vn -0.0980 -0.0000 0.9952
vn -0.2903 -0.0000 0.9569
vn 0.8315 -0.0000 -0.5556
vn 0.8819 -0.0000 -0.4714
vn 0.9239 -0.0000 -0.3827
vn -0.2903 -0.0000 -0.9569
vn -0.1991 -0.0000 -0.9800
vn 0.9569 -0.0000 -0.2903
vn 0.9800 -0.0000 -0.1991
vn -0.1304 -0.0000 -0.9915
vn -0.0000 -0.0000 -1.0000
vn -0.9944 -0.0000 -0.1061
vn -0.9915 -0.0000 -0.1304
vn -0.9800 -0.0000 -0.1991
vn 0.9915 -0.0000 -0.1305
vn 0.9944 -0.0000 -0.1061
vn 0.1304 -0.0000 -0.9915
vn 0.1991 -0.0000 -0.9800
vn -0.9569 -0.0000 -0.2903
vn -0.9239 -0.0000 -0.3827
vn 0.2903 -0.0000 -0.9569
vn 0.3827 -0.0000 -0.9239
vn -0.8819 -0.0000 -0.4714
vn -0.8315 -0.0000 -0.5556
vn 0.4714 -0.0000 -0.8819
vn 0.5556 -0.0000 -0.8315
vn -0.7730 -0.0000 -0.6344
vn -0.7071 -0.0000 -0.7071
vn 0.6344 -0.0000 -0.7730
vn 0.7071 -0.0000 -0.7071
vn -0.6344 -0.0000 -0.7730
vn 0.7730 -0.0000 -0.6344
vn -0.0000 1.0000 -0.0000
vn 0.0107 -0.9999 -0.0011
vn 0.0107 -0.9999 -0.0014
vn 0.0106 -0.9999 -0.0021
vn 0.0106 -0.9999 -0.0022
vn 0.0103 -0.9999 -0.0031
vn 0.0100 -0.9999 -0.0041
vn 0.0095 -0.9999 -0.0051
vn 0.0090 -0.9999 -0.0060
vn 0.0083 -0.9999 -0.0068
vn 0.0076 -0.9999 -0.0076
vn 0.0068 -0.9999 -0.0083
vn 0.0060 -0.9999 -0.0090
vn 0.0051 -0.9999 -0.0095
vn 0.0041 -0.9999 -0.0100
vn 0.0031 -0.9999 -0.0103
vn 0.0021 -0.9999 -0.0106
vn 0.0012 -0.9999 -0.0108
vn 0.0011 -0.9999 -0.0108
vn -0.0000 -0.9999 -0.0110
vn -0.0000 -0.9999 -0.0108
vn 0.0013 -0.9999 -0.0109
vn -0.0000 -0.9999 -0.0111
vn -0.0013 -0.9999 -0.0109
vn -0.0012 -0.9999 -0.0108
vn -0.0011 -0.9999 -0.0108
vn -0.0021 -0.9999 -0.0106
vn -0.0031 -0.9999 -0.0103
vn -0.0041 -0.9999 -0.0100
vn -0.0051 -0.9999 -0.0095
vn -0.0060 -0.9999 -0.0090
vn -0.0068 -0.9999 -0.0083
vn -0.0076 -0.9999 -0.0076
vn -0.0083 -0.9999 -0.0068
vn -0.0090 -0.9999 -0.0060
vn -0.0095 -0.9999 -0.0051
vn -0.0100 -0.9999 -0.0041
vn -0.0103 -0.9999 -0.0031
vn -0.0106 -0.9999 -0.0021
vn -0.0106 -0.9999 -0.0022
vn -0.0107 -0.9999 -0.0011
vn -0.0107 -0.9999 -0.0014
vt 0.000000 0.000000
s 1
usemtl Material.Blue
f 61/1/1 89/1/1 201/1/2 156/1/2
f 156/1/2 201/1/2 115/1/3 60/1/3
f 201/1/2 131/1/2 35/1/3 115/1/3
f 89/1/1 36/1/1 131/1/2 201/1/2
f 62/1/4 91/1/4 202/1/5 157/1/5
f 157/1/5 202/1/5 89/1/1 61/1/1
f 202/1/5 132/1/5 36/1/1 89/1/1
f 91/1/4 37/1/4 132/1/5 202/1/5
f 63/1/6 93/1/6 203/1/7 158/1/7
f 158/1/7 203/1/7 91/1/4 62/1/4
f 203/1/7 133/1/7 37/1/4 91/1/4
f 93/1/6 38/1/6 133/1/7 203/1/7
f 64/1/8 95/1/8 204/1/9 159/1/9
f 159/1/9 204/1/9 93/1/6 63/1/6
f 204/1/9 134/1/9 38/1/6 93/1/6
f 95/1/8 39/1/8 134/1/9 204/1/9
f 51/1/10 96/1/10 205/1/11 146/1/11
f 146/1/11 205/1/11 94/1/12 50/1/12
f 205/1/11 121/1/11 25/1/12 94/1/12
f 96/1/10 26/1/10 121/1/11 205/1/11
f 65/1/13 97/1/13 206/1/14 160/1/14
f 160/1/14 206/1/14 95/1/8 64/1/8
f 206/1/14 135/1/14 39/1/8 95/1/8
f 97/1/13 40/1/13 135/1/14 206/1/14
f 52/1/15 98/1/15 207/1/16 147/1/16
f 147/1/16 207/1/16 96/1/10 51/1/10
f 207/1/16 122/1/16 26/1/10 96/1/10
f 98/1/15 27/1/15 122/1/16 207/1/16
f 66/1/17 99/1/17 208/1/18 161/1/18
f 161/1/18 208/1/18 97/1/13 65/1/13
f 208/1/18 136/1/18 40/1/13 97/1/13
f 99/1/17 41/1/17 136/1/18 208/1/18
f 53/1/19 100/1/19 209/1/20 148/1/20
f 148/1/20 209/1/20 98/1/15 52/1/15
f 209/1/20 123/1/20 27/1/15 98/1/15
f 100/1/19 28/1/19 123/1/20 209/1/20
f 54/1/21 102/1/21 210/1/22 149/1/22
f 149/1/22 210/1/22 100/1/19 53/1/19
f 210/1/22 124/1/22 28/1/19 100/1/19
f 102/1/21 29/1/21 124/1/22 210/1/22
f 55/1/23 104/1/23 211/1/24 150/1/24
f 150/1/24 211/1/24 102/1/21 54/1/21
f 211/1/24 125/1/24 29/1/21 102/1/21
f 104/1/23 30/1/23 125/1/24 211/1/24
f 56/1/25 106/1/25 212/1/26 151/1/26
f 151/1/26 212/1/26 104/1/23 55/1/23
f 212/1/26 126/1/26 30/1/23 104/1/23
f 106/1/25 31/1/25 126/1/26 212/1/26
f 57/1/27 109/1/27 213/1/28 152/1/28
f 152/1/28 213/1/28 106/1/25 56/1/25
f 213/1/28 127/1/28 31/1/25 106/1/25
f 109/1/27 32/1/27 127/1/28 213/1/28
f 6/1/29 144/1/29 214/1/30 74/1/30
f 74/1/30 214/1/30 92/1/31 7/1/31
f 214/1/30 111/1/30 43/1/31 92/1/31
f 144/1/29 44/1/29 111/1/30 214/1/30
f 58/1/32 112/1/32 215/1/33 153/1/33
f 153/1/33 215/1/33 109/1/27 57/1/27
f 215/1/33 128/1/33 32/1/27 109/1/27
f 112/1/32 33/1/32 128/1/33 215/1/33
f 59/1/34 116/1/34 216/1/35 154/1/35
f 154/1/35 216/1/35 112/1/32 58/1/32
f 216/1/35 129/1/35 33/1/32 112/1/32
f 116/1/34 34/1/34 129/1/35 216/1/35
f 60/1/3 115/1/3 217/1/36 155/1/36
f 155/1/36 217/1/36 116/1/34 59/1/34
f 217/1/36 130/1/36 34/1/34 116/1/34
f 115/1/3 35/1/3 130/1/36 217/1/36
f 14/1/37 143/1/37 218/1/38 82/1/38
f 82/1/38 218/1/38 90/1/39 15/1/39
f 218/1/38 162/1/38 18/1/39 90/1/39
f 143/1/37 19/1/37 162/1/38 218/1/38
f 7/1/31 92/1/31 219/1/40 75/1/40
f 75/1/40 219/1/40 117/1/41 8/1/41
f 219/1/40 166/1/40 42/1/41 117/1/41
f 92/1/31 43/1/31 166/1/40 219/1/40
f 15/1/39 90/1/39 220/1/42 83/1/42
f 83/1/42 220/1/42 142/1/43 16/1/43
f 220/1/42 101/1/42 68/1/43 142/1/43
f 90/1/39 18/1/39 101/1/42 220/1/42
f 8/1/41 117/1/41 221/1/44 76/1/44
f 76/1/44 221/1/44 118/1/45 9/1/45
f 221/1/44 108/1/44 24/1/45 118/1/45
f 117/1/41 42/1/41 108/1/44 221/1/44
f 1/1/46 113/1/46 222/1/47 69/1/47
f 69/1/47 222/1/47 141/1/48 2/1/48
f 222/1/47 169/1/47 48/1/48 141/1/48
f 113/1/46 49/1/46 169/1/47 222/1/47
f 16/1/43 142/1/43 223/1/49 84/1/49
f 84/1/49 223/1/49 140/1/50 17/1/50
f 223/1/49 145/1/49 67/1/50 140/1/50
f 142/1/43 68/1/43 145/1/49 223/1/49
f 9/1/45 118/1/45 224/1/51 77/1/51
f 77/1/51 224/1/51 110/1/52 10/1/52
f 224/1/51 165/1/51 23/1/52 110/1/52
f 118/1/45 24/1/45 165/1/51 224/1/51
f 2/1/48 141/1/48 225/1/53 70/1/53
f 70/1/53 225/1/53 139/1/54 3/1/54
f 225/1/53 120/1/53 47/1/54 139/1/54
f 141/1/48 48/1/48 120/1/53 225/1/53
f 10/1/52 110/1/52 226/1/55 78/1/55
f 78/1/55 226/1/55 138/1/56 11/1/56
f 226/1/55 105/1/55 22/1/56 138/1/56
f 110/1/52 23/1/52 105/1/55 226/1/55
f 3/1/54 139/1/54 227/1/57 71/1/57
f 71/1/57 227/1/57 107/1/58 4/1/58
f 227/1/57 168/1/57 46/1/58 107/1/58
f 139/1/54 47/1/54 168/1/57 227/1/57
f 11/1/56 138/1/56 228/1/59 79/1/59
f 79/1/59 228/1/59 88/1/60 12/1/60
f 228/1/59 164/1/59 21/1/60 88/1/60
f 138/1/56 22/1/56 164/1/59 228/1/59
f 4/1/58 107/1/58 229/1/61 72/1/61
f 72/1/61 229/1/61 87/1/62 5/1/62
f 229/1/61 114/1/61 45/1/62 87/1/62
f 107/1/58 46/1/58 114/1/61 229/1/61
f 12/1/60 88/1/60 230/1/63 80/1/63
f 80/1/63 230/1/63 86/1/64 13/1/64
f 230/1/63 103/1/63 20/1/64 86/1/64
f 88/1/60 21/1/60 103/1/63 230/1/63
f 5/1/62 87/1/62 231/1/65 73/1/65
f 73/1/65 231/1/65 144/1/29 6/1/29
f 231/1/65 167/1/65 44/1/29 144/1/29
f 87/1/62 45/1/62 167/1/65 231/1/65
f 13/1/64 86/1/64 232/1/66 81/1/66
f 81/1/66 232/1/66 143/1/37 14/1/37
f 232/1/66 163/1/66 19/1/37 143/1/37
f 86/1/64 20/1/64 163/1/66 232/1/66
f 25/1/45 85/1/45 233/1/45 94/1/45
f 94/1/45 233/1/45 137/1/45 50/1/45
f 233/1/45 113/1/45 1/1/45 137/1/45
f 85/1/45 49/1/45 113/1/45 233/1/45
f 41/1/45 99/1/45 234/1/45 170/1/45
f 170/1/45 234/1/45 140/1/45 67/1/45
f 234/1/45 119/1/45 17/1/45 140/1/45
f 99/1/45 66/1/45 119/1/45 234/1/45
f 17/1/67 119/1/67 235/1/67 84/1/67
f 84/1/67 235/1/67 171/1/67 16/1/67
f 235/1/67 161/1/67 65/1/67 171/1/67
f 119/1/67 66/1/67 161/1/67 235/1/67
f 41/1/68 170/1/68 236/1/69 136/1/69
f 136/1/69 236/1/69 186/1/70 40/1/70
f 236/1/69 145/1/69 68/1/71 186/1/70
f 170/1/68 67/1/68 145/1/69 236/1/69
f 16/1/67 171/1/67 237/1/67 83/1/67
f 83/1/67 237/1/67 172/1/67 15/1/67
f 237/1/67 160/1/67 64/1/67 172/1/67
f 171/1/67 65/1/67 160/1/67 237/1/67
f 15/1/67 172/1/67 238/1/67 82/1/67
f 82/1/67 238/1/67 173/1/67 14/1/67
f 238/1/67 159/1/67 63/1/67 173/1/67
f 172/1/67 64/1/67 159/1/67 238/1/67
f 14/1/67 173/1/67 239/1/67 81/1/67
f 81/1/67 239/1/67 174/1/67 13/1/67
f 239/1/67 158/1/67 62/1/67 174/1/67
f 173/1/67 63/1/67 158/1/67 239/1/67
f 13/1/67 174/1/67 240/1/67 80/1/67
f 80/1/67 240/1/67 175/1/67 12/1/67
f 240/1/67 157/1/67 61/1/67 175/1/67
f 174/1/67 62/1/67 157/1/67 240/1/67
f 12/1/67 175/1/67 241/1/67 79/1/67
f 79/1/67 241/1/67 176/1/67 11/1/67
f 241/1/67 156/1/67 60/1/67 176/1/67
f 175/1/67 61/1/67 156/1/67 241/1/67
f 11/1/67 176/1/67 242/1/67 78/1/67
f 78/1/67 242/1/67 177/1/67 10/1/67
f 242/1/67 155/1/67 59/1/67 177/1/67
f 176/1/67 60/1/67 155/1/67 242/1/67
f 10/1/67 177/1/67 243/1/67 77/1/67
f 77/1/67 243/1/67 178/1/67 9/1/67
f 243/1/67 154/1/67 58/1/67 178/1/67
f 177/1/67 59/1/67 154/1/67 243/1/67
f 9/1/67 178/1/67 244/1/67 76/1/67
f 76/1/67 244/1/67 179/1/67 8/1/67
f 244/1/67 153/1/67 57/1/67 179/1/67
f 178/1/67 58/1/67 153/1/67 244/1/67
f 8/1/67 179/1/67 245/1/67 75/1/67
f 75/1/67 245/1/67 180/1/67 7/1/67
f 245/1/67 152/1/67 56/1/67 180/1/67
f 179/1/67 57/1/67 152/1/67 245/1/67
f 7/1/67 180/1/67 246/1/67 74/1/67
f 74/1/67 246/1/67 181/1/67 6/1/67
f 246/1/67 151/1/67 55/1/67 181/1/67
f 180/1/67 56/1/67 151/1/67 246/1/67
f 6/1/67 181/1/67 247/1/67 73/1/67
f 73/1/67 247/1/67 182/1/67 5/1/67
f 247/1/67 150/1/67 54/1/67 182/1/67
f 181/1/67 55/1/67 150/1/67 247/1/67
f 5/1/67 182/1/67 248/1/67 72/1/67
f 72/1/67 248/1/67 183/1/67 4/1/67
f 248/1/67 149/1/67 53/1/67 183/1/67
f 182/1/67 54/1/67 149/1/67 248/1/67
f 4/1/67 183/1/67 249/1/67 71/1/67
f 71/1/67 249/1/67 184/1/67 3/1/67
f 249/1/67 148/1/67 52/1/67 184/1/67
f 183/1/67 53/1/67 148/1/67 249/1/67
f 3/1/67 184/1/67 250/1/67 70/1/67
f 70/1/67 250/1/67 185/1/67 2/1/67
f 250/1/67 147/1/67 51/1/67 185/1/67
f 184/1/67 52/1/67 147/1/67 250/1/67
f 2/1/67 185/1/67 251/1/67 69/1/67
f 69/1/67 251/1/67 137/1/67 1/1/67
f 251/1/67 146/1/67 50/1/67 137/1/67
f 185/1/67 51/1/67 146/1/67 251/1/67
f 68/1/71 101/1/72 252/1/72 186/1/70
f 186/1/70 252/1/72 135/1/72 40/1/70
f 252/1/72 187/1/73 39/1/73 135/1/72
f 101/1/72 18/1/73 187/1/73 252/1/72
f 39/1/73 187/1/73 253/1/74 134/1/74
f 134/1/74 253/1/74 188/1/75 38/1/75
f 253/1/74 162/1/74 19/1/75 188/1/75
f 187/1/73 18/1/73 162/1/74 253/1/74
f 38/1/75 188/1/75 254/1/76 133/1/76
f 133/1/76 254/1/76 189/1/77 37/1/77
f 254/1/76 163/1/76 20/1/77 189/1/77
f 188/1/75 19/1/75 163/1/76 254/1/76
f 20/1/77 103/1/78 255/1/78 189/1/77
f 189/1/77 255/1/78 132/1/78 37/1/77
f 255/1/78 190/1/79 36/1/79 132/1/78
f 103/1/78 21/1/79 190/1/79 255/1/78
f 36/1/79 190/1/79 256/1/80 131/1/80
f 131/1/80 256/1/80 191/1/81 35/1/81
f 256/1/80 164/1/80 22/1/81 191/1/81
f 190/1/79 21/1/79 164/1/80 256/1/80
f 22/1/81 105/1/82 257/1/82 191/1/81
f 191/1/81 257/1/82 130/1/82 35/1/81
f 257/1/82 192/1/83 34/1/83 130/1/82
f 105/1/82 23/1/83 192/1/83 257/1/82
f 34/1/83 192/1/83 258/1/84 129/1/85
f 129/1/85 258/1/84 193/1/86 33/1/87
f 258/1/84 165/1/88 24/1/89 193/1/86
f 192/1/83 23/1/83 165/1/88 258/1/84
f 24/1/89 108/1/90 259/1/91 193/1/86
f 193/1/86 259/1/91 128/1/92 33/1/87
f 259/1/91 194/1/93 32/1/93 128/1/92
f 108/1/90 42/1/93 194/1/93 259/1/91
f 32/1/93 194/1/93 260/1/94 127/1/94
f 127/1/94 260/1/94 195/1/95 31/1/95
f 260/1/94 166/1/94 43/1/95 195/1/95
f 194/1/93 42/1/93 166/1/94 260/1/94
f 43/1/95 111/1/96 261/1/96 195/1/95
f 195/1/95 261/1/96 126/1/96 31/1/95
f 261/1/96 196/1/97 30/1/97 126/1/96
f 111/1/96 44/1/97 196/1/97 261/1/96
f 30/1/97 196/1/97 262/1/98 125/1/98
f 125/1/98 262/1/98 197/1/99 29/1/99
f 262/1/98 167/1/98 45/1/99 197/1/99
f 196/1/97 44/1/97 167/1/98 262/1/98
f 45/1/99 114/1/100 263/1/100 197/1/99
f 197/1/99 263/1/100 124/1/100 29/1/99
f 263/1/100 198/1/101 28/1/101 124/1/100
f 114/1/100 46/1/101 198/1/101 263/1/100
f 28/1/101 198/1/101 264/1/102 123/1/102
f 123/1/102 264/1/102 199/1/103 27/1/103
f 264/1/102 168/1/102 47/1/103 199/1/103
f 198/1/101 46/1/101 168/1/102 264/1/102
f 47/1/103 120/1/104 265/1/104 199/1/103
f 199/1/103 265/1/104 122/1/104 27/1/103
f 265/1/104 200/1/105 26/1/105 122/1/104
f 120/1/104 48/1/106 200/1/105 265/1/104
f 25/1/107 121/1/108 266/1/108 85/1/107
f 85/1/107 266/1/108 169/1/108 49/1/107
f 266/1/108 200/1/105 48/1/106 169/1/108
f 121/1/108 26/1/105 200/1/105 266/1/108
