# Blender 4.0.1
# www.blender.org
mtllib Panel.mtl
o Panel3
v 54.072746 9.561742 -1.324648
v 26.231461 9.561742 -24.686245
v 54.072750 28.491016 -1.324649
v 26.231459 28.491016 -24.686243
v 52.013084 9.561742 -3.581832
v 49.938835 9.561742 -5.821631
v 47.835384 9.561742 -8.026634
v 45.688122 9.561742 -10.179425
v 43.482437 9.561742 -12.262589
v 41.203720 9.561742 -14.258715
v 38.842224 9.561742 -16.156189
v 36.407692 9.561742 -17.966623
v 33.914738 9.561742 -19.707432
v 31.377975 9.561742 -21.396029
v 28.812010 9.561742 -23.049828
v 28.812012 28.491016 -23.049828
v 31.377975 28.491016 -21.396029
v 33.914742 28.491016 -19.707432
v 36.407696 28.491016 -17.966621
v 38.842228 28.491016 -16.156187
v 41.203724 28.491016 -14.258713
v 43.482441 28.491016 -12.262589
v 45.688126 28.491016 -10.179424
v 47.835384 28.491016 -8.026634
v 49.938835 28.491016 -5.821632
v 52.013084 28.491016 -3.581831
vn -0.5386 -0.0000 0.8425
vn -0.5355 -0.0000 0.8445
vn -0.7387 -0.0000 0.6740
vn -0.7362 -0.0000 0.6768
vn -0.7286 -0.0000 0.6849
vn -0.7158 -0.0000 0.6983
vn -0.6973 -0.0000 0.7167
vn -0.6728 -0.0000 0.7398
vn -0.6428 -0.0000 0.7660
vn -0.6117 -0.0000 0.7911
vn -0.5848 -0.0000 0.8112
vn -0.5634 -0.0000 0.8262
vn -0.5480 -0.0000 0.8365
vt 0.916667 0.000000
vt 0.916667 1.000000
vt 1.000000 1.000000
vt 1.000000 0.000000
vt 0.000000 0.000000
vt 0.000000 1.000000
vt 0.083333 1.000000
vt 0.083333 0.000000
vt 0.166667 1.000000
vt 0.166667 0.000000
vt 0.250000 1.000000
vt 0.250000 0.000000
vt 0.333333 1.000000
vt 0.333333 0.000000
vt 0.416667 1.000000
vt 0.416667 0.000000
vt 0.500000 1.000000
vt 0.500000 0.000000
vt 0.583333 1.000000
vt 0.583333 0.000000
vt 0.666667 1.000000
vt 0.666667 0.000000
vt 0.750000 1.000000
vt 0.750000 0.000000
vt 0.833333 1.000000
vt 0.833333 0.000000
s 1
f 15/1/1 16/2/1 4/3/2 2/4/2
f 1/5/3 3/6/3 26/7/4 5/8/4
f 5/8/4 26/7/4 25/9/5 6/10/5
f 6/10/5 25/9/5 24/11/6 7/12/6
f 7/12/6 24/11/6 23/13/7 8/14/7
f 8/14/7 23/13/7 22/15/8 9/16/8
f 9/16/8 22/15/8 21/17/9 10/18/9
f 10/18/9 21/17/9 20/19/10 11/20/10
f 11/20/10 20/19/10 19/21/11 12/22/11
f 12/22/11 19/21/11 18/23/12 13/24/12
f 13/24/12 18/23/12 17/25/13 14/26/13
f 14/26/13 17/25/13 16/2/1 15/1/1
