# Blender 4.0.1
# www.blender.org
mtllib Stage.mtl
o Stage
v 0.000006 3.229361 28.397131
v 0.000006 5.272484 28.397131
v 5.680322 3.229361 9.562368
v 5.680322 5.272484 9.562368
v 7.238718 3.229361 10.841310
v 7.238718 5.272484 10.841310
v 8.517660 3.229361 12.399705
v 8.517660 5.272484 12.399705
v 9.468000 3.229361 14.177666
v 9.468000 5.272484 14.177666
v 10.053218 3.229361 16.106867
v 10.053218 5.272484 16.106867
v 10.250821 3.229361 18.113167
v 10.250821 5.272484 18.113167
v 10.053219 3.229361 20.119469
v 10.053219 5.272484 20.119469
v 9.468003 3.229361 22.048672
v 9.468003 5.272484 22.048672
v 8.517664 3.229361 23.826632
v 8.517664 5.272484 23.826632
v 7.238722 3.229361 25.385029
v 7.238722 5.272484 25.385029
v 5.680327 3.229361 26.663971
v 5.680327 5.272484 26.663971
v 3.902365 3.229361 27.614309
v 3.902365 5.272484 27.614309
v 1.973166 3.229361 28.199530
v 1.973166 5.272484 28.199530
v 2.289324 4.059554 1.306300
v 2.289324 6.536033 1.306300
v 2.000000 4.059554 7.340969
v 2.000000 6.536033 7.340969
v 7.918043 4.059554 1.022647
v 7.918043 6.536033 1.022647
v 23.441113 4.059554 -1.169220
v 23.441113 6.536033 -1.169220
v 23.441113 4.059554 -16.902050
v 23.441113 6.536033 -16.902050
v -0.000008 4.059554 -16.902050
v -0.000008 6.536033 -16.902050
v 2.696549 4.059554 1.022647
v 2.696549 6.536033 1.022647
v 1.999998 4.059554 1.702723
v 1.999998 6.536033 1.702723
v -0.000000 6.536033 7.340968
v 0.000000 5.272484 9.562366
v 4.760241 3.436909 9.007018
v 3.840161 3.644458 8.451668
v 2.920080 3.852006 7.896318
v 4.760241 5.588371 9.007018
v 3.840161 5.904258 8.451668
v 2.920080 6.220146 7.896318
v -0.000000 5.588370 8.451668
v -0.000000 5.904258 8.451668
v -0.000000 6.220146 7.896317
v 2.000000 6.220146 7.340969
v -0.000000 6.220146 7.340968
v 2.920080 5.904258 7.896318
v 3.840161 5.588370 8.451668
v 4.760241 5.272484 9.007018
v -0.000000 5.904258 7.896318
v 0.000000 5.588371 9.007018
v 0.000000 5.272484 9.007018
v -0.152310 3.952673 2.341723
v -0.152310 5.910620 2.341723
v -0.152310 3.952673 0.970514
v -0.152310 5.910620 0.970514
v 6.007636 3.965581 2.000599
v 5.699130 3.965581 2.341723
v 6.007635 3.965581 0.970514
v 6.007635 5.910620 0.970514
v 5.699130 5.910620 2.341723
v 6.007636 5.910620 2.000599
v 0.611896 4.012194 3.293377
v 0.611896 5.348917 3.293377
v 0.611896 4.012194 0.710973
v 0.611896 5.348917 0.710973
v 7.680238 4.025102 2.952251
v 7.371733 4.025102 3.293376
v 7.680238 4.025102 0.710972
v 7.680238 5.348917 0.710972
v 7.371733 5.348917 3.293376
v 7.680238 5.348917 2.952251
v 1.944210 4.012194 4.539177
v 1.944210 4.743320 4.539177
v 1.944210 4.012194 0.347613
v 1.944210 4.743320 0.347613
v 9.012553 4.025102 4.198052
v 8.704046 4.025102 4.539177
v 9.012552 4.025102 0.347614
v 9.012552 4.743320 0.347614
v 8.704046 4.743320 4.539177
v 9.012553 4.743320 4.198052
v -5.680321 3.229361 9.562372
v -5.680321 5.272484 9.562372
v -7.238716 3.229361 10.841314
v -7.238716 5.272484 10.841314
v -8.517658 3.229361 12.399711
v -8.517658 5.272484 12.399711
v -9.467997 3.229361 14.177672
v -9.467997 5.272484 14.177672
v -10.053212 3.229361 16.106873
v -10.053212 5.272484 16.106873
v -10.250815 3.229361 18.113174
v -10.250815 5.272484 18.113174
v -10.053211 3.229361 20.119476
v -10.053211 5.272484 20.119476
v -9.467994 3.229361 22.048676
v -9.467994 5.272484 22.048676
v -8.517654 3.229361 23.826637
v -8.517654 5.272484 23.826637
v -7.238711 3.229361 25.385033
v -7.238711 5.272484 25.385033
v -5.680315 3.229361 26.663975
v -5.680315 5.272484 26.663975
v -3.902353 3.229361 27.614313
v -3.902353 5.272484 27.614313
v -1.973153 3.229361 28.199530
v -1.973153 5.272484 28.199530
v -2.289329 4.059554 1.306302
v -2.289329 6.536033 1.306302
v -2.000000 4.059554 7.340970
v -2.000000 6.536033 7.340970
v -7.918048 4.059554 1.022653
v -7.918048 6.536033 1.022653
v -23.441120 4.059554 -1.169205
v -23.441120 6.536033 -1.169205
v -23.441132 4.059554 -16.902035
v -23.441132 6.536033 -16.902035
v -2.696554 4.059554 1.022649
v -2.696554 6.536033 1.022649
v -2.000003 4.059554 1.702724
v -2.000003 6.536033 1.702724
v -4.760241 3.436909 9.007021
v -3.840161 3.644458 8.451671
v -2.920080 3.852006 7.896320
v -4.760241 5.588371 9.007021
v -3.840161 5.904258 8.451671
v -2.920080 6.220146 7.896320
v -2.000000 6.220146 7.340970
v -2.920080 5.904258 7.896320
v -3.840161 5.588370 8.451671
v -4.760241 5.272484 9.007021
v 0.152306 3.952673 2.341723
v 0.152306 5.910620 2.341723
v 0.152305 3.952673 0.970514
v 0.152305 5.910620 0.970514
v -6.007639 3.965581 2.000603
v -5.699133 3.965581 2.341727
v -6.007640 3.965581 0.970518
v -6.007640 5.910620 0.970518
v -5.699133 5.910620 2.341727
v -6.007639 5.910620 2.000603
v -0.611899 4.012194 3.293377
v -0.611899 5.348917 3.293377
v -0.611901 4.012194 0.710973
v -0.611901 5.348917 0.710973
v -7.680242 4.025102 2.952257
v -7.371736 4.025102 3.293382
v -7.680243 4.025102 0.710978
v -7.680243 5.348917 0.710978
v -7.371736 5.348917 3.293382
v -7.680242 5.348917 2.952257
v -1.944213 4.012194 4.539178
v -1.944213 4.743320 4.539178
v -1.944216 4.012194 0.347615
v -1.944216 4.743320 0.347615
v -9.012555 4.025102 4.198058
v -8.704048 4.025102 4.539183
v -9.012558 4.025102 0.347620
v -9.012558 4.743320 0.347620
v -8.704048 4.743320 4.539183
v -9.012555 4.743320 4.198058
vn 0.5897 -0.0000 -0.8076
vn 0.5771 -0.0000 -0.8167
vn 0.7071 -0.0000 -0.7071
vn 0.8315 -0.0000 -0.5556
vn 0.9239 -0.0000 -0.3827
vn 0.9808 -0.0000 -0.1951
vn 1.0000 -0.0000 -0.0000
vn 0.9808 -0.0000 0.1951
vn 0.9239 -0.0000 0.3827
vn 0.8315 -0.0000 0.5556
vn 0.7071 -0.0000 0.7071
vn 0.5556 -0.0000 0.8315
vn 0.3827 -0.0000 0.9239
vn 0.1959 -0.0000 0.9806
vn -0.0000 -0.0000 1.0000
vn 0.5168 -0.0000 -0.8561
vn 0.0701 -0.0000 0.9975
vn 0.1398 -0.0000 0.9902
vn -0.0000 -0.0000 -1.0000
vn 0.0039 -1.0000 -0.0055
vn -0.0000 -1.0000 -0.0055
vn 0.6993 -0.0000 0.7149
vn 0.5716 -0.0000 0.8206
vn 0.8077 -0.0000 0.5895
vn -0.0000 1.0000 -0.0000
vn -1.0000 -0.0000 -0.0000
vn 0.7417 -0.0000 0.6708
vn -0.5897 -0.0000 -0.8076
vn -0.7071 -0.0000 -0.7071
vn -0.5771 -0.0000 -0.8167
vn -0.8315 -0.0000 -0.5556
vn -0.9239 -0.0000 -0.3827
vn -0.9808 -0.0000 -0.1951
vn -0.9808 -0.0000 0.1951
vn -0.9239 -0.0000 0.3827
vn -0.8315 -0.0000 0.5556
vn -0.7071 -0.0000 0.7071
vn -0.5556 -0.0000 0.8315
vn -0.3827 -0.0000 0.9239
vn -0.1959 -0.0000 0.9806
vn -0.5168 -0.0000 -0.8561
vn -0.0701 -0.0000 0.9975
vn -0.1398 -0.0000 0.9902
vn -0.0039 -1.0000 -0.0055
vn -0.6993 -0.0000 0.7149
vn -0.5716 -0.0000 0.8206
vn -0.8077 -0.0000 0.5895
vn -0.7417 -0.0000 0.6708
vt 0.406250 0.500000
vt 0.406250 1.000000
vt 0.375000 1.000000
vt 0.375000 0.500000
vt 0.343750 1.000000
vt 0.343750 0.500000
vt 0.312500 1.000000
vt 0.312500 0.500000
vt 0.281250 1.000000
vt 0.281250 0.500000
vt 0.250000 1.000000
vt 0.250000 0.500000
vt 0.218750 1.000000
vt 0.218750 0.500000
vt 0.187500 1.000000
vt 0.187500 0.500000
vt 0.156250 1.000000
vt 0.156250 0.500000
vt 0.125000 1.000000
vt 0.125000 0.500000
vt 0.093750 1.000000
vt 0.093750 0.500000
vt 0.062500 1.000000
vt 0.062500 0.500000
vt 0.031250 1.000000
vt 0.031250 0.500000
vt 0.000000 1.000000
vt 0.000000 0.500000
vt 0.375000 0.015145
vt 0.625000 0.015145
vt 0.625000 0.250000
vt 0.593111 0.250000
vt 0.375000 0.250000
vt 0.398438 0.437500
vt 0.451761 0.757441
vt 0.625000 0.000000
vt 0.375000 0.000000
vt 0.625000 0.000000
vt 0.382812 0.312500
vt 0.390625 0.375000
vt 0.000000 0.000000
vt 0.460938 0.812500
vt 0.498152 0.590054
vt 0.570312 0.437500
vt 0.545302 0.420826
vt 0.515625 0.625000
vt 0.625000 0.500000
vt 0.637521 0.750000
vt 0.875000 0.750000
vt 0.625000 0.687806
vt 0.875000 0.500000
s 1
f 3/1/1 4/2/2 6/3/3 5/4/3
f 5/4/3 6/3/3 8/5/4 7/6/4
f 7/6/4 8/5/4 10/7/5 9/8/5
f 9/8/5 10/7/5 12/9/6 11/10/6
f 11/10/6 12/9/6 14/11/7 13/12/7
f 13/12/7 14/11/7 16/13/8 15/14/8
f 15/14/8 16/13/8 18/15/9 17/16/9
f 17/16/9 18/15/9 20/17/10 19/18/10
f 19/18/10 20/17/10 22/19/11 21/20/11
f 21/20/11 22/19/11 24/21/12 23/22/12
f 23/22/12 24/21/12 26/23/13 25/24/13
f 25/24/13 26/23/13 28/25/14 27/26/14
f 27/26/14 28/25/14 2/27/15 1/28/15
f 43/29/7 44/30/7 32/31/7 56/32/7 31/33/7
f 47/34/16 60/35/16 4/2/2 3/1/1
f 42/36/15 41/37/15 33/37/17 34/38/17
f 34/38/17 33/37/17 35/37/18 36/38/18
f 36/38/7 35/37/7 37/37/7 38/38/7
f 38/38/19 37/37/19 39/37/19 40/38/19
f 31/33/20 49/39/20 48/40/20 47/34/20 3/1/20 5/4/20 7/6/20 9/8/20 11/10/20 13/12/20 15/14/20 17/16/20 19/18/20 21/20/20 23/22/20 25/24/20 27/26/20 1/28/21 39/37/21 37/37/20 35/37/20 33/37/20 41/37/20 29/37/20 43/29/20
f 30/38/22 29/37/22 41/37/23 42/36/23
f 29/37/22 30/38/22 44/30/24 43/29/24
f 62/41/25 50/42/25 59/43/25 53/41/25
f 6/3/25 4/2/25 46/41/25 2/27/25 28/25/25 26/23/25 24/21/25 22/19/25 20/17/25 18/15/25 16/13/25 14/11/25 12/9/25 10/7/25 8/5/25
f 44/30/25 30/38/25 42/36/25 34/38/25 36/38/25 38/38/25 40/38/25 45/41/25 32/31/25
f 63/41/15 60/35/15 50/42/15 62/41/15
f 31/33/16 56/32/16 52/44/16 58/45/16 49/39/16
f 49/39/16 58/45/16 51/46/16 59/43/16 48/40/16
f 48/40/16 59/43/16 50/42/16 60/35/16 47/34/16
f 56/32/15 32/31/15 45/41/15 57/41/15
f 56/32/25 57/41/25 55/41/25 52/44/25
f 46/41/25 4/2/25 60/35/25 63/41/25
f 53/41/15 59/43/15 51/46/15 54/41/15
f 58/45/25 61/41/25 54/41/25 51/46/25
f 58/45/15 52/44/15 55/41/15 61/41/15
s 0
f 64/37/26 65/38/26 67/31/26 66/33/26
f 66/33/19 67/31/19 71/47/19 70/4/19
f 64/37/15 69/48/15 72/48/15 65/49/15
f 71/47/7 73/50/7 68/50/7 70/4/7
f 71/47/25 67/51/25 65/49/25 72/48/25 73/50/25
f 73/50/27 72/48/27 69/48/27 68/50/27
f 74/37/26 75/38/26 77/31/26 76/33/26
f 76/33/19 77/31/19 81/47/19 80/4/19
f 74/37/15 79/48/15 82/48/15 75/49/15
f 81/47/7 83/50/7 78/50/7 80/4/7
f 81/47/25 77/51/25 75/49/25 82/48/25 83/50/25
f 83/50/27 82/48/27 79/48/27 78/50/27
f 84/37/26 85/38/26 87/31/26 86/33/26
f 86/33/19 87/31/19 91/47/19 90/4/19
f 84/37/15 89/48/15 92/48/15 85/49/15
f 91/47/7 93/50/7 88/50/7 90/4/7
f 91/47/25 87/51/25 85/49/25 92/48/25 93/50/25
f 93/50/27 92/48/27 89/48/27 88/50/27
s 1
f 94/1/28 96/4/29 97/3/29 95/2/30
f 96/4/29 98/6/31 99/5/31 97/3/29
f 98/6/31 100/8/32 101/7/32 99/5/31
f 100/8/32 102/10/33 103/9/33 101/7/32
f 102/10/33 104/12/26 105/11/26 103/9/33
f 104/12/26 106/14/34 107/13/34 105/11/26
f 106/14/34 108/16/35 109/15/35 107/13/34
f 108/16/35 110/18/36 111/17/36 109/15/35
f 110/18/36 112/20/37 113/19/37 111/17/36
f 112/20/37 114/22/38 115/21/38 113/19/37
f 114/22/38 116/24/39 117/23/39 115/21/38
f 116/24/39 118/26/40 119/25/40 117/23/39
f 118/26/40 1/28/15 2/27/15 119/25/40
f 132/29/26 122/33/26 140/32/26 123/31/26 133/30/26
f 134/34/41 94/1/28 95/2/30 143/35/41
f 131/36/15 125/38/42 124/37/42 130/37/15
f 125/38/42 127/38/43 126/37/43 124/37/42
f 127/38/26 129/38/26 128/37/26 126/37/26
f 129/38/19 40/38/19 39/37/19 128/37/19
f 122/33/44 132/29/44 120/37/44 130/37/44 124/37/44 126/37/44 128/37/44 39/37/21 1/28/21 118/26/44 116/24/44 114/22/44 112/20/44 110/18/44 108/16/44 106/14/44 104/12/44 102/10/44 100/8/44 98/6/44 96/4/44 94/1/44 134/34/44 135/40/44 136/39/44
f 121/38/45 131/36/46 130/37/46 120/37/45
f 120/37/45 132/29/47 133/30/47 121/38/45
f 62/41/25 53/41/25 142/43/25 137/42/25
f 97/3/25 99/5/25 101/7/25 103/9/25 105/11/25 107/13/25 109/15/25 111/17/25 113/19/25 115/21/25 117/23/25 119/25/25 2/27/25 46/41/25 95/2/25
f 133/30/25 123/31/25 45/41/25 40/38/25 129/38/25 127/38/25 125/38/25 131/36/25 121/38/25
f 63/41/15 62/41/15 137/42/15 143/35/15
f 122/33/41 136/39/41 141/45/41 139/44/41 140/32/41
f 136/39/41 135/40/41 142/43/41 138/46/41 141/45/41
f 135/40/41 134/34/41 143/35/41 137/42/41 142/43/41
f 140/32/15 57/41/15 45/41/15 123/31/15
f 140/32/25 139/44/25 55/41/25 57/41/25
f 46/41/25 63/41/25 143/35/25 95/2/25
f 53/41/15 54/41/15 138/46/15 142/43/15
f 141/45/25 138/46/25 54/41/25 61/41/25
f 141/45/15 61/41/15 55/41/15 139/44/15
s 0
f 144/37/7 146/33/7 147/31/7 145/38/7
f 146/33/19 150/4/19 151/47/19 147/31/19
f 144/37/15 145/49/15 152/48/15 149/48/15
f 151/47/26 150/4/26 148/50/26 153/50/26
f 151/47/25 153/50/25 152/48/25 145/49/25 147/51/25
f 153/50/48 148/50/48 149/48/48 152/48/48
f 154/37/7 156/33/7 157/31/7 155/38/7
f 156/33/19 160/4/19 161/47/19 157/31/19
f 154/37/15 155/49/15 162/48/15 159/48/15
f 161/47/26 160/4/26 158/50/26 163/50/26
f 161/47/25 163/50/25 162/48/25 155/49/25 157/51/25
f 163/50/48 158/50/48 159/48/48 162/48/48
f 164/37/7 166/33/7 167/31/7 165/38/7
f 166/33/19 170/4/19 171/47/19 167/31/19
f 164/37/15 165/49/15 172/48/15 169/48/15
f 171/47/26 170/4/26 168/50/26 173/50/26
f 171/47/25 173/50/25 172/48/25 165/49/25 167/51/25
f 173/50/48 168/50/48 169/48/48 172/48/48
